<svg xmlns="http://www.w3.org/2000/svg" viewBox="0 0 1480.95 202.73"><defs><style>.cls-1{fill:#d9e021;}</style></defs><g id="レイヤー_2" data-name="レイヤー 2"><g id="レイヤー_17" data-name="レイヤー 17"><path class="cls-1" d="M23.5,34.3v-30C7.17,4.92,0,12.79,0,31.3V189.8c0,7.25,4.75,10.75,11.75,10.75,6.75,0,11.75-3.5,11.75-10.5V34.3Z"/><path class="cls-1" d="M81,4.3H25.5c-.68,0-1.35,0-2,0v30c0-5.5,2.5-8.75,8-8.75h48c25,0,38.75,12.5,38.75,35,0,24.25-13.5,37.75-38.75,37.75H34a10.5,10.5,0,0,0-10.5,10.5h0A10.5,10.5,0,0,0,34,119.3H80c39.75,0,62.75-21.75,62.75-59.25C142.75,24.55,120.5,4.3,81,4.3Z"/><path class="cls-1" d="M191,101.8c0-48.14,23.9-79.61,62.5-79.74V.55c-53.61.13-87.25,39.85-87.25,101,0,57.12,28.86,95.15,75.25,100.77a10.78,10.78,0,0,0,12-10.75v-.26a10.84,10.84,0,0,0-9.31-10.7C211.46,175.79,191,145.9,191,101.8Z"/><path class="cls-1" d="M253.5.55h0V22.06h.25c38,0,62.25,31,62.25,78.25,0,58.9-29.5,75.1-48,79.47-13.66,3.23-9.75,23.74,4.08,21.35.4-.07.81-.15,1.23-.25,25.75-5.74,67.4-26.27,67.4-99.07C340.75,40,307.14.43,253.5.55Z"/><path class="cls-1" d="M399.25,33.8V4.34c-16.33.58-23.5,8.45-23.5,27V189.8c0,7.25,5,10.75,12,10.75,6.75,0,11.5-3.5,11.5-10.5V33.8Z"/><path class="cls-1" d="M524.25,185.8,518,171.05c-18.5-46.75-26.5-63.5-41.5-68,23.25-5,39.5-20,39.5-48.75,0-30.75-20-50-56.25-50h-58.5c-.69,0-1.35,0-2,0V33.8c0-6,3-8.75,8.25-8.75h50.75C480.5,25.05,492,36.55,492,57.8c0,20-14,33.25-35.25,33.25H409.5a10.24,10.24,0,0,0-10.25,10.25h0a10.24,10.24,0,0,0,10.25,10.25h35.75c25,0,32,17.75,50,66.5l6.25,16a9.88,9.88,0,0,0,9.75,6.5,20.82,20.82,0,0,0,5.5-.75c5-1.25,8.25-5,8.25-9.75A12.7,12.7,0,0,0,524.25,185.8Z"/><path class="cls-1" d="M631,26.3h56.75c5.75,0,9.5-5,9.5-10.75,0-6-3.5-11.25-9.5-11.25H550c-6,0-9.5,5.25-9.5,11.25,0,5.75,3.5,10.75,9.75,10.75H607v.11h24Z"/><path class="cls-1" d="M607,38.41v150.3a11.83,11.83,0,0,0,11.5,11.83c7,.18,12.5-3.32,12.5-10.24V38.41a12,12,0,0,0-12-12h0A12,12,0,0,0,607,38.41Z"/><path class="cls-1" d="M748.49,88.05h.26V31.71a10.16,10.16,0,0,0-.26,2.34Z"/><path class="cls-1" d="M724.74,31.05V189.8c0,7.25,5,10.75,11.75,10.75,7,0,12-3.5,12-10.5V109.3h.26V88.05h-.26v-54a10.16,10.16,0,0,1,.26-2.34V4.32C732.06,4.74,724.74,12.35,724.74,31.05Z"/><path class="cls-1" d="M835.49,109.3c6.25,0,9.75-4.75,9.75-10.5,0-6.25-3.25-10.75-9.75-10.75H759.37a10.62,10.62,0,0,0-10.62,10.63h0a10.62,10.62,0,0,0,10.62,10.62Z"/><path class="cls-1" d="M849.49,4.3H750.24l-1.49,0V31.71c.8-3.58,3.54-5.66,7.49-5.66h93.25c6.75,0,10.25-4.75,10.25-11S856.24,4.3,849.49,4.3Z"/><path class="cls-1" d="M904.49,101.25c0-48.15,23.9-79.61,62.5-79.74V0c-53.6.13-87.25,39.85-87.25,101,0,57.12,28.86,95.15,75.25,100.77A10.78,10.78,0,0,0,967,191v-.26a10.84,10.84,0,0,0-9.31-10.7C925,175.24,904.49,145.35,904.49,101.25Z"/><path class="cls-1" d="M967,0h0V21.51h.25c38,0,62.25,31,62.25,78.25,0,58.9-29.5,75.1-48,79.47-13.66,3.23-9.74,23.74,4.08,21.35.4-.07.81-.16,1.23-.25,25.75-5.74,67.4-26.27,67.4-99.07C1054.24,39.4,1020.64-.12,967,0Z"/><path class="cls-1" d="M1090,13.55c0-7.5,5.25-10.75,12-10.75,7,0,12,3.25,12,10.5V167.8c0,5.75,3.25,8.75,9,8.75h88.5c6.5,0,10.25,4.75,10.25,11,0,6-3.75,11.5-10.25,11.5h-96c-17.75,0-25.5-7.75-25.5-26.75Z"/><path class="cls-1" d="M1246.74,13.05c0-7,5-10.25,11.75-10.25,7,0,12.25,3.25,12.25,10.25V190.3c0,6.75-5.25,10.25-12.25,10.25-6.75,0-11.75-3.5-11.75-10.25Z"/><path class="cls-1" d="M1331.2,102.12c0-48.14,23.9-79.6,62.5-79.74V.88c-53.6.12-87.25,39.84-87.25,101,0,57.13,28.87,95.15,75.25,100.78a10.78,10.78,0,0,0,12-10.75v-.26a10.85,10.85,0,0,0-9.31-10.71C1351.67,176.11,1331.2,146.22,1331.2,102.12Z"/><path class="cls-1" d="M1393.7.88h0v21.5h.25c38,0,62.25,31,62.25,78.25,0,58.91-29.49,75.1-48,79.47-13.66,3.23-9.74,23.74,4.08,21.35l1.24-.24c25.74-5.74,67.39-26.27,67.39-99.08C1481,40.28,1447.35.75,1393.7.88Z"/></g></g></svg>